<svg xmlns="http://www.w3.org/2000/svg" xmlns:xlink="http://www.w3.org/1999/xlink" width="543" height="549" viewBox="0 0 543 549" preserveAspectRatio="none">
  <defs>
    <clipPath id="clip-path">
      <rect width="388" height="388" fill="none"/>
    </clipPath>
  </defs>
  <g id="grid" transform="translate(-787 -174)">
    <g id="Repeat_Grid_1" data-name="Repeat Grid 1" transform="translate(942 335)" clip-path="url(#clip-path)">
      <g transform="translate(-1065 -205)">
        <g id="Rectangle_4" data-name="Rectangle 4" transform="translate(1065 205)" fill="#fff" stroke="#707070" stroke-width="1">
          <rect width="61" height="61" stroke="none"/>
          <rect x="0.5" y="0.5" width="60" height="60" fill="none"/>
        </g>
      </g>
      <g transform="translate(-984 -205)">
        <g id="Rectangle_4-2" data-name="Rectangle 4" transform="translate(1065 205)" fill="#fff" stroke="#707070" stroke-width="1">
          <rect width="61" height="61" stroke="none"/>
          <rect x="0.5" y="0.5" width="60" height="60" fill="none"/>
        </g>
      </g>
      <g transform="translate(-903 -205)">
        <g id="Rectangle_4-3" data-name="Rectangle 4" transform="translate(1065 205)" fill="#fff" stroke="#707070" stroke-width="1">
          <rect width="61" height="61" stroke="none"/>
          <rect x="0.5" y="0.5" width="60" height="60" fill="none"/>
        </g>
      </g>
      <g transform="translate(-822 -205)">
        <g id="Rectangle_4-4" data-name="Rectangle 4" transform="translate(1065 205)" fill="#fff" stroke="#707070" stroke-width="1">
          <rect width="61" height="61" stroke="none"/>
          <rect x="0.5" y="0.5" width="60" height="60" fill="none"/>
        </g>
      </g>
      <g transform="translate(-741 -205)">
        <g id="Rectangle_4-5" data-name="Rectangle 4" transform="translate(1065 205)" fill="#fff" stroke="#707070" stroke-width="1">
          <rect width="61" height="61" stroke="none"/>
          <rect x="0.5" y="0.5" width="60" height="60" fill="none"/>
        </g>
      </g>
      <g transform="translate(-1065 -124)">
        <g id="Rectangle_4-6" data-name="Rectangle 4" transform="translate(1065 205)" fill="#fff" stroke="#707070" stroke-width="1">
          <rect width="61" height="61" stroke="none"/>
          <rect x="0.5" y="0.5" width="60" height="60" fill="none"/>
        </g>
      </g>
      <g transform="translate(-984 -124)">
        <g id="Rectangle_4-7" data-name="Rectangle 4" transform="translate(1065 205)" fill="#fff" stroke="#707070" stroke-width="1">
          <rect width="61" height="61" stroke="none"/>
          <rect x="0.5" y="0.5" width="60" height="60" fill="none"/>
        </g>
      </g>
      <g transform="translate(-903 -124)">
        <g id="Rectangle_4-8" data-name="Rectangle 4" transform="translate(1065 205)" fill="#fff" stroke="#707070" stroke-width="1">
          <rect width="61" height="61" stroke="none"/>
          <rect x="0.5" y="0.5" width="60" height="60" fill="none"/>
        </g>
      </g>
      <g transform="translate(-822 -124)">
        <g id="Rectangle_4-9" data-name="Rectangle 4" transform="translate(1065 205)" fill="#fff" stroke="#707070" stroke-width="1">
          <rect width="61" height="61" stroke="none"/>
          <rect x="0.5" y="0.5" width="60" height="60" fill="none"/>
        </g>
      </g>
      <g transform="translate(-741 -124)">
        <g id="Rectangle_4-10" data-name="Rectangle 4" transform="translate(1065 205)" fill="#fff" stroke="#707070" stroke-width="1">
          <rect width="61" height="61" stroke="none"/>
          <rect x="0.5" y="0.5" width="60" height="60" fill="none"/>
        </g>
      </g>
      <g transform="translate(-1065 -43)">
        <g id="Rectangle_4-11" data-name="Rectangle 4" transform="translate(1065 205)" fill="#fff" stroke="#707070" stroke-width="1">
          <rect width="61" height="61" stroke="none"/>
          <rect x="0.5" y="0.5" width="60" height="60" fill="none"/>
        </g>
      </g>
      <g transform="translate(-984 -43)">
        <g id="Rectangle_4-12" data-name="Rectangle 4" transform="translate(1065 205)" fill="#fff" stroke="#707070" stroke-width="1">
          <rect width="61" height="61" stroke="none"/>
          <rect x="0.5" y="0.5" width="60" height="60" fill="none"/>
        </g>
      </g>
      <g transform="translate(-903 -43)">
        <g id="Rectangle_4-13" data-name="Rectangle 4" transform="translate(1065 205)" fill="#fff" stroke="#707070" stroke-width="1">
          <rect width="61" height="61" stroke="none"/>
          <rect x="0.5" y="0.5" width="60" height="60" fill="none"/>
        </g>
      </g>
      <g transform="translate(-822 -43)">
        <g id="Rectangle_4-14" data-name="Rectangle 4" transform="translate(1065 205)" fill="#fff" stroke="#707070" stroke-width="1">
          <rect width="61" height="61" stroke="none"/>
          <rect x="0.5" y="0.5" width="60" height="60" fill="none"/>
        </g>
      </g>
      <g transform="translate(-741 -43)">
        <g id="Rectangle_4-15" data-name="Rectangle 4" transform="translate(1065 205)" fill="#fff" stroke="#707070" stroke-width="1">
          <rect width="61" height="61" stroke="none"/>
          <rect x="0.5" y="0.5" width="60" height="60" fill="none"/>
        </g>
      </g>
      <g transform="translate(-1065 38)">
        <g id="Rectangle_4-16" data-name="Rectangle 4" transform="translate(1065 205)" fill="#fff" stroke="#707070" stroke-width="1">
          <rect width="61" height="61" stroke="none"/>
          <rect x="0.5" y="0.5" width="60" height="60" fill="none"/>
        </g>
      </g>
      <g transform="translate(-984 38)">
        <g id="Rectangle_4-17" data-name="Rectangle 4" transform="translate(1065 205)" fill="#fff" stroke="#707070" stroke-width="1">
          <rect width="61" height="61" stroke="none"/>
          <rect x="0.5" y="0.5" width="60" height="60" fill="none"/>
        </g>
      </g>
      <g transform="translate(-903 38)">
        <g id="Rectangle_4-18" data-name="Rectangle 4" transform="translate(1065 205)" fill="#fff" stroke="#707070" stroke-width="1">
          <rect width="61" height="61" stroke="none"/>
          <rect x="0.5" y="0.5" width="60" height="60" fill="none"/>
        </g>
      </g>
      <g transform="translate(-822 38)">
        <g id="Rectangle_4-19" data-name="Rectangle 4" transform="translate(1065 205)" fill="#fff" stroke="#707070" stroke-width="1">
          <rect width="61" height="61" stroke="none"/>
          <rect x="0.5" y="0.5" width="60" height="60" fill="none"/>
        </g>
      </g>
      <g transform="translate(-741 38)">
        <g id="Rectangle_4-20" data-name="Rectangle 4" transform="translate(1065 205)" fill="#fff" stroke="#707070" stroke-width="1">
          <rect width="61" height="61" stroke="none"/>
          <rect x="0.5" y="0.5" width="60" height="60" fill="none"/>
        </g>
      </g>
      <g transform="translate(-1065 119)">
        <g id="Rectangle_4-21" data-name="Rectangle 4" transform="translate(1065 205)" fill="#fff" stroke="#707070" stroke-width="1">
          <rect width="61" height="61" stroke="none"/>
          <rect x="0.5" y="0.5" width="60" height="60" fill="none"/>
        </g>
      </g>
      <g transform="translate(-984 119)">
        <g id="Rectangle_4-22" data-name="Rectangle 4" transform="translate(1065 205)" fill="#fff" stroke="#707070" stroke-width="1">
          <rect width="61" height="61" stroke="none"/>
          <rect x="0.5" y="0.5" width="60" height="60" fill="none"/>
        </g>
      </g>
      <g transform="translate(-903 119)">
        <g id="Rectangle_4-23" data-name="Rectangle 4" transform="translate(1065 205)" fill="#fff" stroke="#707070" stroke-width="1">
          <rect width="61" height="61" stroke="none"/>
          <rect x="0.5" y="0.5" width="60" height="60" fill="none"/>
        </g>
      </g>
      <g transform="translate(-822 119)">
        <g id="Rectangle_4-24" data-name="Rectangle 4" transform="translate(1065 205)" fill="#fff" stroke="#707070" stroke-width="1">
          <rect width="61" height="61" stroke="none"/>
          <rect x="0.5" y="0.5" width="60" height="60" fill="none"/>
        </g>
      </g>
      <g transform="translate(-741 119)">
        <g id="Rectangle_4-25" data-name="Rectangle 4" transform="translate(1065 205)" fill="#fff" stroke="#707070" stroke-width="1">
          <rect width="61" height="61" stroke="none"/>
          <rect x="0.5" y="0.5" width="60" height="60" fill="none"/>
        </g>
      </g>
    </g>
    <text id="_5" data-name="5" transform="translate(787 469)" fill="#0f0f0f" font-size="90" font-family="SegoeUI, Segoe UI"><tspan x="-24.258" y="97">5</tspan></text>
    <text id="_5-2" data-name="5" transform="translate(1081 174)" fill="#0f0f0f" font-size="90" font-family="SegoeUI, Segoe UI"><tspan x="-24.258" y="97">5</tspan></text>
  </g>
</svg>
