<svg xmlns="http://www.w3.org/2000/svg" xmlns:xlink="http://www.w3.org/1999/xlink" width="1210.377" height="180.025" viewBox="0 0 1210.377 180.025">
  <defs>
    <style>
      .cls-1 {
        fill: url(#linear-gradient);
      }
    </style>
    <linearGradient id="linear-gradient" x1="0.5" x2="0.5" y2="1" gradientUnits="objectBoundingBox">
      <stop offset="0" stop-color="#e8ff00"/>
      <stop offset="0.77" stop-color="#a48c2f"/>
      <stop offset="1" stop-color="#7a5d23"/>
    </linearGradient>
  </defs>
  <path id="title" class="cls-1" d="M119.318,78.319h-48.4V228.184H51.282V78.319H3V60.551H119.318Zm96.559,94.805H131.359q.468,19.99,10.755,30.861t28.29,10.872q20.224,0,37.174-13.327v18Q191.8,230.99,165.844,230.99q-25.367,0-39.863-16.307t-14.5-45.883q0-27.939,15.84-45.532t39.337-17.593q23.5,0,36.356,15.2t12.859,42.2Zm-19.639-16.249q-.117-16.6-8.008-25.835t-21.919-9.235a30.969,30.969,0,0,0-23.029,9.7q-9.469,9.7-11.69,25.367ZM294.9,230.99q-26.536,0-42.376-16.775t-15.84-44.48q0-30.16,16.483-47.11t44.539-16.95q26.77,0,41.792,16.483t15.022,45.708q0,28.64-16.191,45.883T294.9,230.99Zm1.4-109.184q-18.47,0-29.225,12.567t-10.755,34.661q0,21.276,10.872,33.55T296.3,214.858q18.587,0,28.582-12.041t9.995-34.252q0-22.445-9.995-34.6T296.3,121.806Zm151.268,6.079q-5.027-3.858-14.5-3.858-12.274,0-20.516,11.573t-8.241,31.563v61.022H385.147V108.479h19.172v24.666h.468q4.091-12.625,12.508-19.7a28.523,28.523,0,0,1,18.821-7.072q7.482,0,11.456,1.637Zm30.628-49.8a12.147,12.147,0,0,1-8.767-3.507,11.837,11.837,0,0,1-3.624-8.884A12.277,12.277,0,0,1,478.2,53.186a12.38,12.38,0,0,1,8.943,3.565,12.488,12.488,0,0,1,0,17.71A12.275,12.275,0,0,1,478.2,78.086Zm9.352,150.1H468.38V108.479h19.172Zm124.5,0H592.878v-18.7h-.468q-12.508,21.51-36.823,21.51-17.886,0-28-9.469t-10.112-25.133q0-33.55,39.512-39.044l35.888-5.027q0-30.511-24.666-30.511-21.626,0-39.044,14.729V116.9q17.652-11.222,40.681-11.222,42.2,0,42.2,44.656ZM592.878,167.63,564,171.605q-13.327,1.87-20.107,6.6t-6.78,16.775a18.271,18.271,0,0,0,6.254,14.32q6.254,5.553,16.658,5.553,14.262,0,23.555-9.995t9.294-25.309ZM803.3,228.184H716.323V60.551h19.639V210.416H803.3Zm32.966-150.1a12.147,12.147,0,0,1-8.768-3.507,11.837,11.837,0,0,1-3.624-8.884,12.277,12.277,0,0,1,12.391-12.508,12.38,12.38,0,0,1,8.943,3.565,12.488,12.488,0,0,1,0,17.71A12.275,12.275,0,0,1,836.262,78.086Zm9.352,150.1H826.443V108.479h19.172Zm120.406-5.494q-13.794,8.3-32.732,8.3-25.6,0-41.324-16.658t-15.723-43.194q0-29.576,16.951-47.52t45.24-17.944q15.781,0,27.822,5.845v19.639a48.745,48.745,0,0,0-28.523-9.352q-18.353,0-30.1,13.151T895.881,169.5q0,21.042,11.047,33.2t29.634,12.158q15.664,0,29.459-10.4Zm112.457-108.716-70.841,97.845h70.14v16.366H979.464v-5.962l70.841-97.377H986.127V108.479h92.351Zm44.422,96.91h-.468v17.3h-19.172V50.965h19.172v78.556h.468q14.145-23.847,41.382-23.847,23.029,0,36.063,16.074t13.034,43.077q0,30.043-14.612,48.1t-39.98,18.061Q1135.057,230.99,1122.9,210.883Zm-.468-48.279V179.32q0,14.846,9.644,25.192t24.49,10.346q17.418,0,27.3-13.327t9.878-37.057q0-19.99-9.235-31.329t-25.017-11.339q-16.717,0-26.887,11.631T1122.432,162.6Z" transform="translate(-3.003 -50.965)"/>
</svg>
